# xmcd
# Track frame offsets:
# 150
# 20255
# 35672
# 57826
# 77344
# 100748
# 116719
# 137250
# 163739
# 189855
# 218115
# 234819
#
# Disc length: 3389 seconds
# Revision: 0
# Processed by: cddbd v1.5.2PL0 Copyright (c) Steve Scherf et al.
# Submitted via: VisiTrax 2.11.3.279 - For more info visit www.synapsa.com
#
DISCID=8a0d3b0c
DTITLE=Kip Calahan - Dust Devil Angel
DYEAR=2004
DGENRE=Cowboy
TTITLE0=Buckaroo Man
TTITLE1=Ponydance
TTITLE2=Beggars Would Ride
TTITLE3=Tumbleweed
TTITLE4=Spring Winds
TTITLE5=Eyes Of A Windmill Man
TTITLE6=Lonely Windmill
TTITLE7=Dust Devil angel
TTITLE8=Taking Pictures With My Heart
TTITLE9=Echos Of The Trail
TTITLE10=Scars Of Liberty
TTITLE11=Next Thing Smokin'
EXTD=
EXTT0=
EXTT1=
EXTT2=
EXTT3=
EXTT4=
EXTT5=
EXTT6=
EXTT7=
EXTT8=
EXTT9=
EXTT10=
EXTT11=
PLAYORDER=
